HIERARCHY
ROOT Pelvis
{
	OFFSET 0.000000 0.000000 0.000000
	CHANNELS 6 Xposition Yposition Zposition Xrotation Yrotation Zrotation
	JOINT LeftUpLeg_virtual
	{
		OFFSET 0.000000 0.000000 0.000000
		CHANNELS 3 Xrotation Yrotation Zrotation
		JOINT LeftUpLeg
		{
			OFFSET 18.735201 -5.666702 -4.541200
			CHANNELS 3 Xrotation Yrotation Zrotation
			JOINT LeftLeg
			{
				OFFSET -0.021200 -31.938179 0.493100
				CHANNELS 3 Xrotation Yrotation Zrotation
				JOINT LeftFoot
				{
					OFFSET 0.021200 -31.938179 -4.336299
					CHANNELS 3 Xrotation Yrotation Zrotation
					JOINT LeftToeBase
					{
						OFFSET 0.943001 -26.722000 15.023500
						CHANNELS 3 Xrotation Yrotation Zrotation
						End Site
						{
							OFFSET 0 0 0
						}
					}
				}
			}
		}
	}
	JOINT RightUpLeg_virtual
	{
		OFFSET 0.000000 0.000000 0.000000
		CHANNELS 3 Xrotation Yrotation Zrotation
		JOINT RightUpLeg
		{
			OFFSET -18.735201 -5.666702 -4.541200
			CHANNELS 3 Xrotation Yrotation Zrotation
			JOINT RightLeg
			{
				OFFSET 0.018946 -31.938133 0.493100
				CHANNELS 3 Xrotation Yrotation Zrotation
				JOINT RightFoot
				{
					OFFSET -0.018946 -31.938126 -4.336299
					CHANNELS 3 Xrotation Yrotation Zrotation
					JOINT RightToeBase
					{
						OFFSET -0.943001 -26.722004 15.023500
						CHANNELS 3 Xrotation Yrotation Zrotation
						End Site
						{
							OFFSET 0 0 0
						}
					}
				}
			}
		}
	}
	JOINT Hips_virtual
	{
		OFFSET 0.000000 0.000000 0.000000
		CHANNELS 3 Xrotation Yrotation Zrotation
		JOINT Hips
		{
			OFFSET -0.000000 -0.000000 -0.000000
			CHANNELS 3 Xrotation Yrotation Zrotation
			JOINT Spine
			{
				OFFSET 0.000000 10.199997 -0.299500
				CHANNELS 3 Xrotation Yrotation Zrotation
				JOINT Spine1
				{
					OFFSET 0.000000 11.900002 -1.516600
					CHANNELS 3 Xrotation Yrotation Zrotation
					JOINT Spine2
					{
						OFFSET 0.000000 13.600006 -2.842500
						CHANNELS 3 Xrotation Yrotation Zrotation
						JOINT Neck_virtual
						{
							OFFSET 0.000000 0.000000 0.000000
							CHANNELS 3 Xrotation Yrotation Zrotation
							JOINT Neck
							{
								OFFSET 0.000000 9.624100 -2.890100
								CHANNELS 3 Xrotation Yrotation Zrotation
								JOINT Head
								{
									OFFSET 0.000000 14.068802 -1.351900
									CHANNELS 3 Xrotation Yrotation Zrotation
									End Site
									{
										OFFSET 0 0 0
									}
								}
							}
						}
						JOINT LeftShoulder_virtual
						{
							OFFSET 0.000000 0.000000 0.000000
							CHANNELS 3 Xrotation Yrotation Zrotation
							JOINT LeftShoulder
							{
								OFFSET 15.263000 10.923401 -0.547700
								CHANNELS 3 Xrotation Yrotation Zrotation
								JOINT LeftArm
								{
									OFFSET 25.438599 -2.830597 -13.032500
									CHANNELS 3 Xrotation Yrotation Zrotation
									JOINT LeftForeArm
									{
										OFFSET 29.960503 0.000000 0.000000
										CHANNELS 3 Xrotation Yrotation Zrotation
										JOINT LeftHand
										{
											OFFSET 27.849251 0.000000 0.000000
											CHANNELS 3 Xrotation Yrotation Zrotation
											End Site
											{
												OFFSET 0 0 0
											}
										}
									}
								}
							}
						}
						JOINT RightShoulder_virtual
						{
							OFFSET 0.000000 0.000000 0.000000
							CHANNELS 3 Xrotation Yrotation Zrotation
							JOINT RightShoulder
							{
								OFFSET -15.263000 10.923401 -0.547700
								CHANNELS 3 Xrotation Yrotation Zrotation
								JOINT RightArm
								{
									OFFSET -25.438599 -2.830597 -13.032500
									CHANNELS 3 Xrotation Yrotation Zrotation
									JOINT RightForeArm
									{
										OFFSET -29.960503 0.000000 0.000000
										CHANNELS 3 Xrotation Yrotation Zrotation
										JOINT RightHand
										{
											OFFSET -27.849251 0.000000 0.000000
											CHANNELS 3 Xrotation Yrotation Zrotation
											End Site
											{
												OFFSET 0 0 0
											}
										}
									}
								}
							}
						}
					}
				}
			}
		}
	}
}
MOTION
Frames: 4
Frame Time: 0.03333333
-3.159940 87.201881 2.640941 0.000000 0.000000 0.000000 0.355875 -41.637858 0.393772 -41.868933 -1.053880 14.827092 42.962187 -7.391618 -1.503705 -7.457893 -6.927166 -12.435790 0.000000 0.000000 0.000000 13.116812 -35.319175 2.983792 -15.999693 -16.215337 -17.796705 34.284257 -3.503710 2.121328 -16.827786 -8.537734 12.507418 0.000000 0.000000 0.000000 0.366896 -9.972325 -1.559111 -11.719490 -44.172145 -6.006485 13.328052 10.327871 -2.958880 7.061527 6.752854 -2.188656 0.000000 0.000000 0.000000 8.162780 5.658988 -2.606864 0.936784 2.051438 -0.242876 0.000000 0.000000 0.000000 8.857325 7.721656 -2.960117 3.844670 5.502897 -8.692100 -2.969156 -8.652521 -54.771331 2.526696 -46.081941 -2.324205 0.000000 0.000000 0.000000 9.525783 6.941443 -1.112261 2.969031 16.224464 8.543704 -9.593367 -10.740986 49.965904 -5.919311 29.975200 10.579488 0.000000 0.000000 0.000000 
-3.131643 87.210526 2.640321 0.000000 0.000000 0.000000 0.302025 -41.671988 0.382755 -41.926283 -1.075962 14.830530 43.019520 -7.418855 -1.536786 -7.384989 -6.946190 -12.515064 0.000000 0.000000 0.000000 13.114887 -35.289081 3.025568 -15.980592 -16.215120 -17.729296 34.273650 -3.512441 2.152865 -16.852363 -8.561964 12.544290 0.000000 0.000000 0.000000 0.405614 -9.875210 -1.532036 -11.785124 -44.091559 -6.024911 13.247576 10.309542 -2.916802 7.077662 6.748002 -2.206850 0.000000 0.000000 0.000000 8.241342 5.660145 -2.617789 0.923006 2.035267 -0.227461 0.000000 0.000000 0.000000 8.937998 7.747443 -2.990031 3.814482 5.383914 -8.648811 -3.011828 -8.491895 -54.926643 2.482039 -46.336444 -2.259859 0.000000 0.000000 0.000000 9.648342 7.014329 -1.179099 2.987157 16.035621 8.663152 -9.410834 -10.874632 50.138021 -5.920268 30.037881 10.655626 0.000000 0.000000 0.000000 
-3.085147 87.227234 2.640420 0.000000 0.000000 0.000000 0.199978 -41.744914 0.358531 -42.034780 -1.118463 14.833532 43.126036 -7.466996 -1.597559 -7.252229 -6.978584 -12.659534 0.000000 0.000000 0.000000 13.102002 -35.249756 3.094854 -15.957574 -16.216397 -17.613999 34.241507 -3.529163 2.207480 -16.905872 -8.605811 12.606074 0.000000 0.000000 0.000000 0.502775 -9.732740 -1.463130 -11.954691 -43.909521 -6.078238 13.113401 10.270818 -2.831240 7.118157 6.730326 -2.237400 0.000000 0.000000 0.000000 8.386842 5.660620 -2.637256 0.895466 2.002047 -0.199745 0.000000 0.000000 0.000000 9.079872 7.787686 -3.042266 3.755045 5.164403 -8.557419 -3.057575 -8.170087 -55.186368 2.383041 -46.824386 -2.148148 0.000000 0.000000 0.000000 9.872899 7.144930 -1.299159 3.007308 15.675501 8.888618 -9.076939 -11.106600 50.442006 -5.911567 30.175950 10.789080 0.000000 0.000000 0.000000 
-3.035724 87.251419 2.644073 0.000000 0.000000 0.000000 0.059774 -41.860071 0.317591 -42.183091 -1.177304 14.829847 43.268282 -7.526323 -1.676968 -7.081409 -7.015701 -12.846134 0.000000 0.000000 0.000000 13.066659 -35.230881 3.169792 -15.952105 -16.221515 -17.481613 34.170139 -3.551567 2.270886 -16.995257 -8.660547 12.673331 0.000000 0.000000 0.000000 0.689754 -9.617503 -1.330757 -12.279289 -43.598877 -6.187473 12.967988 10.210041 -2.702362 7.192823 6.688717 -2.270922 0.000000 0.000000 0.000000 8.578636 5.658264 -2.661624 0.853989 1.951590 -0.164955 0.000000 0.000000 0.000000 9.250249 7.824714 -3.103381 3.668072 4.876744 -8.410884 -3.050975 -7.686201 -55.470924 2.214675 -47.502002 -2.017043 0.000000 0.000000 0.000000 10.164317 7.308776 -1.449742 3.005718 15.177430 9.197677 -8.642745 -11.383869 50.811939 -5.880929 30.409256 10.949411 0.000000 0.000000 0.000000 
